<?xml version="1.0" encoding="UTF-8" standalone="no"?>
<svg
   width="182"
   height="39"
   viewBox="0 0 182 39"
   fill="none"
   version="1.1"
   id="svg2"
   sodipodi:docname="logo.svg"
   inkscape:version="1.4 (86a8ad7, 2024-10-11)"
   xmlns:inkscape="http://www.inkscape.org/namespaces/inkscape"
   xmlns:sodipodi="http://sodipodi.sourceforge.net/DTD/sodipodi-0.dtd"
   xmlns="http://www.w3.org/2000/svg"
   xmlns:svg="http://www.w3.org/2000/svg">
  <defs
     id="defs2" />
  <sodipodi:namedview
     id="namedview2"
     pagecolor="#ffffff"
     bordercolor="#000000"
     borderopacity="0.25"
     inkscape:showpageshadow="2"
     inkscape:pageopacity="0.0"
     inkscape:pagecheckerboard="0"
     inkscape:deskcolor="#d1d1d1"
     inkscape:zoom="9.7582418"
     inkscape:cx="41.86205"
     inkscape:cy="11.323761"
     inkscape:window-width="1920"
     inkscape:window-height="1017"
     inkscape:window-x="-8"
     inkscape:window-y="-8"
     inkscape:window-maximized="1"
     inkscape:current-layer="svg2" />
  <path
     fill-rule="evenodd"
     clip-rule="evenodd"
     d="M21.8706 27.504C20.2818 28.4845 18.3992 29.052 16.381 29.052C14.2873 29.052 12.3398 28.4414 10.7147 27.3925L6.35309 31.6526C9.1242 33.751 12.6033 35 16.381 35C20.0842 35 23.5003 33.7998 26.244 31.7758L21.8706 27.504ZM29.5158 28.5624C31.5547 25.8947 32.7619 22.585 32.7619 19C32.7619 15.3102 31.4831 11.912 29.3348 9.20535L24.9732 13.4655C26.0471 15.0528 26.6723 16.9551 26.6723 19C26.6723 20.9389 26.1102 22.7496 25.1366 24.2851L29.5158 28.5624ZM10.97 10.448C12.5421 9.49699 14.3959 8.94803 16.381 8.94803C18.2903 8.94803 20.0781 9.45589 21.6107 10.3409L26.0036 6.05016C23.3019 4.13163 19.9767 3 16.381 3C12.7106 3 9.32203 4.17911 6.59086 6.17069L10.97 10.448ZM7.67448 13.6381L3.30098 9.3663C1.22883 12.0462 0 15.3829 0 19C0 22.5121 1.15857 25.76 3.12278 28.3989L7.51564 24.1081C6.6096 22.6112 6.08965 20.8649 6.08965 19C6.08965 17.0287 6.67063 15.1898 7.67448 13.6381Z"
     fill="#EAECF9"
     id="path1" />
  <text
     xml:space="preserve"
     style="font-size:24px;text-align:start;writing-mode:lr-tb;direction:ltr;text-anchor:start;fill:#eaecf9;fill-opacity:1"
     x="38.12162"
     y="27.771397"
     id="text2"><tspan
       sodipodi:role="line"
       id="tspan2"
       x="38.12162"
       y="27.771397"
       style="font-style:normal;font-variant:normal;font-weight:normal;font-stretch:normal;font-size:24px;font-family:Corbel;-inkscape-font-specification:Corbel;fill:#eaecf9;fill-opacity:1">CT AI</tspan></text>
</svg>
